<svg width="30" height="30" viewBox="0 0 30 30" fill="none" xmlns="http://www.w3.org/2000/svg">
<g id="ion:wifi-outline" clip-path="url(#clip0_1538_12506)">
<g id="wifi">
<mask id="mask0_1538_12506" style="mask-type:alpha" maskUnits="userSpaceOnUse" x="-1" y="-1" width="32" height="32">
<rect id="Bounding box" x="-1" y="-1" width="32" height="32" fill="#D9D9D9"/>
</mask>
<g mask="url(#mask0_1538_12506)">
<path id="wifi_2" d="M15 26.1606C14.4689 26.1606 14.0114 25.9686 13.6273 25.5845C13.2433 25.2005 13.0513 24.7429 13.0513 24.2119C13.0513 23.6808 13.2433 23.2233 13.6273 22.8392C14.0114 22.4552 14.4689 22.2632 15 22.2632C15.531 22.2632 15.9886 22.4552 16.3727 22.8392C16.7567 23.2233 16.9487 23.6808 16.9487 24.2119C16.9487 24.7429 16.7567 25.2005 16.3727 25.5845C15.9886 25.9686 15.531 26.1606 15 26.1606ZM15 14.3845C16.5857 14.3845 18.0696 14.6629 19.4517 15.2196C20.8338 15.7763 22.1068 16.5731 23.2709 17.6102C23.4499 17.768 23.5457 17.9607 23.5586 18.1884C23.5714 18.416 23.4929 18.6147 23.3231 18.7845C23.155 18.9526 22.9575 19.0283 22.7308 19.0115C22.504 18.9947 22.2994 18.9082 22.1171 18.7521C21.096 17.8677 19.9818 17.1922 18.7744 16.7256C17.5669 16.2589 16.3088 16.0256 15 16.0256C13.6912 16.0256 12.433 16.2589 11.2256 16.7256C10.0182 17.1922 8.90398 17.8677 7.88289 18.7521C7.70056 18.9082 7.496 18.9942 7.26922 19.0102C7.04245 19.0261 6.845 18.9501 6.67689 18.782C6.5088 18.6236 6.43075 18.4277 6.44272 18.1944C6.45468 17.961 6.55012 17.7654 6.72906 17.6076C7.89315 16.5706 9.16622 15.7741 10.5483 15.2183C11.9303 14.6624 13.4142 14.3845 15 14.3845ZM15 6.38452C17.731 6.38452 20.2753 6.87996 22.6329 7.87085C24.9904 8.86174 27.0895 10.2065 28.9299 11.9051C29.1088 12.0697 29.206 12.2706 29.2214 12.5076C29.2368 12.7446 29.1596 12.9481 28.9898 13.1179C28.816 13.3031 28.6031 13.3753 28.3513 13.3345C28.0994 13.2938 27.8738 13.1834 27.6744 13.0033C25.9399 11.4495 24.0033 10.2314 21.8645 9.34905C19.7258 8.46672 17.4376 8.02555 15 8.02555C12.5624 8.02555 10.2742 8.46672 8.13546 9.34905C5.9967 10.2314 4.06009 11.4495 2.32562 13.0033C2.1262 13.1834 1.90427 13.2938 1.65982 13.3345C1.41538 13.3753 1.20056 13.3031 1.01536 13.1179C0.845579 12.9481 0.767524 12.7446 0.78119 12.5076C0.794857 12.2706 0.891146 12.0697 1.07006 11.9051C2.91052 10.2065 5.00953 8.86174 7.36709 7.87085C9.72465 6.87996 12.2689 6.38452 15 6.38452Z" fill="#2D81F7"/>
</g>
</g>
</g>
<defs>
<clipPath id="clip0_1538_12506">
<rect width="30" height="30" fill="white"/>
</clipPath>
</defs>
</svg>
