<svg width="32" height="32" viewBox="0 0 32 32" fill="none" xmlns="http://www.w3.org/2000/svg">
<g id="home">
<mask id="mask0_1538_12523" style="mask-type:alpha" maskUnits="userSpaceOnUse" x="0" y="0" width="32" height="32">
<rect id="Bounding box" width="32" height="32" fill="#D9D9D9"/>
</mask>
<g mask="url(#mask0_1538_12523)">
<path id="home_2" d="M7.79489 25.5385H13.0257V18.5641C13.0257 18.288 13.119 18.0566 13.3058 17.8699C13.4925 17.6831 13.724 17.5897 14 17.5897H18C18.2761 17.5897 18.5075 17.6831 18.6943 17.8699C18.881 18.0566 18.9744 18.288 18.9744 18.5641V25.5385H24.2052V13.6353C24.2052 13.4986 24.1752 13.3746 24.1154 13.2635C24.0556 13.1524 23.9744 13.0541 23.8718 12.9687L16.4872 7.40169C16.3504 7.29343 16.188 7.23929 16 7.23929C15.812 7.23929 15.6496 7.29343 15.5129 7.40169L8.12822 12.9687C8.02564 13.0541 7.94444 13.1524 7.88462 13.2635C7.8248 13.3746 7.79489 13.4986 7.79489 13.6353V25.5385ZM6.66669 25.5385V13.641C6.66669 13.3248 6.73292 13.0313 6.86539 12.7607C6.99788 12.49 7.19374 12.2649 7.45299 12.0855L14.8376 6.48716C15.1687 6.22505 15.5536 6.09399 15.9924 6.09399C16.4311 6.09399 16.8211 6.22505 17.1624 6.48716L24.5471 12.0855C24.8063 12.2649 25.0022 12.49 25.1347 12.7607C25.2671 13.0313 25.3334 13.3248 25.3334 13.641V25.5385C25.3334 25.8393 25.2205 26.1026 24.9949 26.3282C24.7693 26.5538 24.506 26.6667 24.2052 26.6667H18.8205C18.5445 26.6667 18.313 26.5733 18.1263 26.3865C17.9396 26.1998 17.8462 25.9684 17.8462 25.6923V18.718H14.1539V25.6923C14.1539 25.9684 14.0605 26.1998 13.8737 26.3865C13.687 26.5733 13.4556 26.6667 13.1795 26.6667H7.79489C7.49402 26.6667 7.23078 26.5538 7.00515 26.3282C6.77951 26.1026 6.66669 25.8393 6.66669 25.5385Z" fill="#2D81F7"/>
</g>
</g>
</svg>
